<?xml version="1.0" encoding="UTF-8" standalone="no"?>
<!DOCTYPE svg PUBLIC "-//W3C//DTD SVG 1.1//EN" "http://www.w3.org/Graphics/SVG/1.1/DTD/svg11.dtd">
<svg width="100%" height="100%" viewBox="0 0 300 326" version="1.1" xmlns="http://www.w3.org/2000/svg" xmlns:xlink="http://www.w3.org/1999/xlink" xml:space="preserve" xmlns:serif="http://www.serif.com/" style="fill-rule:evenodd;clip-rule:evenodd;stroke-linejoin:round;stroke-miterlimit:2;">
    <path id="background" d="M300,0L300,326L0,326L0,0L300,0ZM81.37,166.055C60.625,163.27 38.85,169.98 23.086,186.211C-3.031,213.089 -2.406,256.847 24.448,282.989C51.241,309.07 94.103,308.848 120.624,282.326C136.671,266.281 142.707,244.591 139.861,223.418C137.015,202.245 143.357,181.132 159.207,165.282C175.057,149.432 196.672,143.569 217.343,145.936C238.295,148.34 260.193,142.734 276.24,126.687C302.761,100.166 302.982,57.303 276.902,30.511C250.759,3.657 207.024,3.032 180.148,29.149C163.893,44.937 157.195,66.774 160.015,87.554C160.055,87.841 160.174,88.672 160.267,89.314C160.312,89.625 160.35,89.892 160.37,90.032C160.555,91.336 160.565,91.44 160.667,92.743C162.286,112.691 155.771,132.111 140.903,146.979C126.036,161.847 106.26,168.03 86.779,166.704C85.286,166.603 83.8,166.395 82.323,166.188L82.087,166.159C81.77,166.114 81.686,166.099 81.37,166.055Z" style="fill:rgb(235,235,235);"/>
    <g id="cutout" transform="matrix(1.18698,0,0,1.18698,-28.0648,-29.2007)">
        <path d="M92.196,164.498C92.462,164.535 92.533,164.548 92.8,164.586L92.999,164.61C94.243,164.785 95.495,164.96 96.753,165.045C113.165,166.162 129.826,160.953 142.351,148.427C154.877,135.901 160.366,119.54 159.002,102.735C158.916,101.637 158.908,101.549 158.752,100.451C158.735,100.333 158.703,100.108 158.665,99.846C158.587,99.305 158.486,98.605 158.453,98.363C156.077,80.856 161.72,62.459 175.414,49.158C198.057,27.155 234.902,27.682 256.927,50.306C278.899,72.877 278.713,108.988 256.369,131.332C242.85,144.851 224.402,149.574 206.75,147.548C189.335,145.554 171.125,150.494 157.772,163.847C144.419,177.2 139.076,194.987 141.473,212.825C143.871,230.663 138.786,248.936 125.267,262.454C102.923,284.798 66.813,284.985 44.241,263.012C21.617,240.988 21.09,204.123 43.093,181.479C56.374,167.805 74.719,162.152 92.196,164.498Z" style="fill:white;fill-opacity:0.5;fill-rule:nonzero;"/>
    </g>
</svg>
